<?xml version="1.0" encoding="utf-8"?>
<svg id="master-artboard" viewBox="0 0 1241.346923828125 1110.892333984375" version="1.1" xmlns="http://www.w3.org/2000/svg" x="0px" y="0px" style="enable-background:new 0 0 1400 980;" width="1241.346923828125px" height="1110.892333984375px"><defs><path id="text-path-0" d="M 778.8464965820312 213.4612274169922 A 100 18 0 0 1 988.3533935546875 213.4612274169922 A 100 18 0 0 1 778.8464965820312 213.4612274169922 Z" style="fill: none; stroke: red; stroke-width: 2;"/><path id="text-path-1" d="M 664.5464477539062 37.96122741699219 A 100 19 0 0 1 876.5812377929688 37.96122741699219 A 100 19 0 0 1 664.5464477539062 37.96122741699219" style="fill: none; stroke: red; stroke-width: 2;"/><path id="text-path-2" d="M 765.3650512695312 211.70851135253906 A 100 17 0 0 1 991.5017700195312 211.70851135253906 A 100 17 0 0 1 765.3650512695312 211.70851135253906" style="fill: none; stroke: red; stroke-width: 2;"/><path id="path-1" d="M 765.3650512695312 211.70851135253906 A 100 17 0 0 1 991.5017700195312 211.70851135253906 A 100 17 0 0 1 765.3650512695312 211.70851135253906" style="fill: none; stroke: red; stroke-width: 2;"/><linearGradient id="gradient-0" gradientUnits="objectBoundingBox" x1="0.5" y1="0" x2="0.5" y2="1">
                <stop offset="0" style="stop-color: #000000"/>
                <stop offset="1" style="stop-color: #000000"/>
              </linearGradient><path id="path-29" d="M 778.8464965820312 213.4612274169922 A 100 18 0 0 1 988.3533935546875 213.4612274169922 A 100 18 0 0 1 778.8464965820312 213.4612274169922 Z" style="fill: none; stroke: red; stroke-width: 2;"/><path id="path-30" d="M 664.5464477539062 37.96122741699219 A 100 19 0 0 1 876.5812377929688 37.96122741699219 A 100 19 0 0 1 664.5464477539062 37.96122741699219" style="fill: none; stroke: red; stroke-width: 2;"/><path id="path-31" d="M 765.3650512695312 211.70851135253906 A 100 17 0 0 1 991.5017700195312 211.70851135253906 A 100 17 0 0 1 765.3650512695312 211.70851135253906" style="fill: none; stroke: red; stroke-width: 2;"/><path id="path-32" d="M 765.3650512695312 211.70851135253906 A 100 17 0 0 1 991.5017700195312 211.70851135253906 A 100 17 0 0 1 765.3650512695312 211.70851135253906" style="fill: none; stroke: red; stroke-width: 2;"/><linearGradient id="gradient-1" gradientUnits="objectBoundingBox" x1="0.5" y1="0" x2="0.5" y2="1">
                <stop offset="0" style="stop-color: #000000"/>
                <stop offset="1" style="stop-color: #000000"/>
              </linearGradient></defs><rect id="ee-background" x="0" y="0" width="1241.346923828125" height="1110.892333984375" style="fill: white; fill-opacity: 0; pointer-events: none;"/>


<g transform="matrix(0.9808632135391235, 0, 0, 0.9808632135391235, -91.03710174560547, 171.69790649414062)"><g transform="matrix(1, 0, 0, 1, 5.684341886080802e-14, 0)"><g transform="matrix(0.9999998807907106, 0, 0, 0.9999998807907106, 0.00001862273006736359, 0.000022352884286647168)"><rect id="rect-1" x="0" y="0" width="1400" height="980" style="fill: white; fill-opacity: 0; pointer-events: none;"/><path d="M 880.3870239257812 239.90606689453125" style="fill: rgb(63, 61, 61); fill-opacity: 1; stroke: rgb(0, 0, 0); stroke-opacity: 1; stroke-width: 0; paint-order: fill;"/><path d="M 864.144775390625 229.48651123046875" style="fill: rgb(63, 61, 61); fill-opacity: 1; stroke: rgb(0, 0, 0); stroke-opacity: 1; stroke-width: 0; paint-order: fill;"/><g transform="matrix(1.0803673267364502, 0, 0, 1.0803673267364502, 72.56475830078125, 92.3929129263694)"><path d="M584.62145,93.57415h-1.34574v-2.355h1.0093a.6729.6729,0,0,0,.67287-.67287V78.43458a.67288.67288,0,0,0-.67287-.67287h-1.0093V70.88332a14.65339,14.65339,0,0,0-14.65348-14.65344h-1.49539V54.54771a.67287.67287,0,0,0-.67287-.67287H554.34231a.67287.67287,0,0,0-.67287.67287v1.68217H334.83712a14.65339,14.65339,0,0,0-14.65348,14.65344v311.838a14.65343,14.65343,0,0,0,14.65348,14.65348H568.62223a14.65343,14.65343,0,0,0,14.65348-14.65348V107.03154h1.34574a.6729.6729,0,0,0,.67287-.67287V94.247A.67288.67288,0,0,0,584.62145,93.57415Z" transform="translate(-19.23898 -53.87484)" fill="#3f3d56" id="path2793" style="fill:#3e3e3e;fill-opacity:1"/><path d="M 313.054993 11.94 H 553.945007 V 331.559995 H 313.054993 V 11.94 Z" fill="#f2f2f2" id="rect2795" style="fill: rgb(7, 0, 44); fill-opacity: 1;" transform="matrix(1, 0, 0, 1, 0.7335427303300719, -1.4670958143267825)"/><path d="M 0 668 H 1161.522095 V 670 H 0 V 668 Z" fill="#3f3d56" id="rect2797" style="fill: rgb(255, 255, 255); fill-opacity: 1;"/><path class="tree" d="M290.49114,622.12231c2.2427,76.79367-42.62747,104.93685-98.93825,106.58136q-1.962.0573-3.90636.07024-3.91709.02986-7.75808-.13046c-50.92746-2.1142-91.23951-29.14763-93.32521-100.56557-2.15845-73.90872,89.5781-169.93874,96.46088-177.04212.00619-.00018.00619-.00018.01227-.00663.26146-.27069.39536-.40611.39536-.40611S288.24861,545.33487,290.49114,622.12231Z" fill="#92b06a" id="path2799" style="fill-opacity: 1; transform-origin: 140px 750px; animation: 5s ease-in-out 0s infinite normal none running wave; fill: rgb(40, 176, 68);" transform="matrix(1, 0, 0, 1, -39.851238318981586, 9.564296927159319)"/><path class="tree" d="M187.49873,717.0655l35.77056-53.19441-35.6974,58.91711.07464,5.98571q-3.91709.02986-7.75808-.13046l1.77414-76.94233-.0486-.59358.06546-.11469.16981-7.27058-39.173-56.87462,39.12677,51.433.13885,1.53678,1.34-58.13294L149.447,522.71855l33.93127,48.75366-.35417-120.43645.00076-.40086.01151.39423,2.246,94.92013,30.83647-38.55661-30.73552,46.73377.673,51.99856,28.37589-50.74862-28.27161,58.3933.37465,28.91381,41.26621-70.69222-41.14076,80.779Z" fill="#14171a" id="path2801" style="fill-opacity: 1; transform-origin: 140px 750px; animation: 5s ease-in-out 0s infinite normal none running wave;" transform="matrix(1, 0, 0, 1, -38.96649798585954, 9.826355880546771)"/><path d="M886.239,160.20719h-1.48962V119.3996A23.61832,23.61832,0,0,0,861.131,95.78124H774.6746a23.61833,23.61833,0,0,0-23.61841,23.61836V343.27326a23.61833,23.61833,0,0,0,23.61841,23.61836H861.131a23.61832,23.61832,0,0,0,23.6184-23.61836V189.25474H886.239Z" transform="translate(-19.23898 -53.87484)" fill="#3f3d56" id="path2803" style="fill:#3e3e3e;fill-opacity:1"/><path d="M879.71974,120.78771V344.3349a17.63854,17.63854,0,0,1-17.63537,17.64153H775.21065a17.63848,17.63848,0,0,1-17.6353-17.64153V120.78771a17.63714,17.63714,0,0,1,17.6353-17.63526h10.5398a8.37878,8.37878,0,0,0,7.75928,11.54184h49.53035a8.37869,8.37869,0,0,0,7.75924-11.54184h11.28505A17.6372,17.6372,0,0,1,879.71974,120.78771Z" transform="translate(-19.23898 -53.87484)" fill="#f2f2f2" id="path2805" style="fill: rgb(167, 236, 231); fill-opacity: 1;"/><path transform="translate(-19.23898 -53.87484)" d="M859.14669,434.44284H650.42537v-4.30193H555.783v4.30193H346.20131a14.11841,14.11841,0,0,0-14.11843,14.11842V734.36492a14.11846,14.11846,0,0,0,14.11843,14.11848H859.14669a14.11846,14.11846,0,0,0,14.11843-14.11848V448.56126A14.11841,14.11841,0,0,0,859.14669,434.44284Z" fill="#3f3d56" id="path2823" style="fill:#3e3e3e;fill-opacity:1"/><path d="M 331.772369 405.519165 H 835.097656 V 689.446259 H 331.772369 V 405.519165 Z" fill="#f2f2f2" id="rect2825" style="fill: rgb(167, 236, 231); fill-opacity: 1;" transform="matrix(1, 0, 0, 1, -1.6333191048888338, -3.266637601916443)"/><path d="M 588.167132 392.613403 A 5.16231 5.16231 0 0 1 583.004822 397.775713 A 5.16231 5.16231 0 0 1 577.842512 392.613403 A 5.16231 5.16231 0 0 1 583.004822 387.451093 A 5.16231 5.16231 0 0 1 588.167132 392.613403 Z" fill="#eb7260" id="circle2827"/><path d="M887.3974,738.15876H838.27612v-3.53915a.70171.70171,0,0,0-.70173-.70174H820.73281a.70171.70171,0,0,0-.70173.70174v3.53915h-10.526v-3.53915a.70171.70171,0,0,0-.70173-.70174H791.96177a.70171.70171,0,0,0-.70173.70174v3.53915h-10.526v-3.53915a.70171.70171,0,0,0-.70173-.70174H763.19074a.70171.70171,0,0,0-.70173.70174v3.53915H751.963v-3.53915a.70171.70171,0,0,0-.70173-.70174H734.41971a.70171.70171,0,0,0-.70174.70174v3.53915H723.192v-3.53915a.70171.70171,0,0,0-.70174-.70174H705.64867a.70171.70171,0,0,0-.70173.70174v3.53915h-10.526v-3.53915a.70171.70171,0,0,0-.70173-.70174H676.87764a.70171.70171,0,0,0-.70173.70174v3.53915h-10.526v-3.53915a.70171.70171,0,0,0-.70173-.70174H533.02247a.70171.70171,0,0,0-.70173.70174v3.53915h-10.526v-3.53915a.70171.70171,0,0,0-.70173-.70174H504.25144a.70171.70171,0,0,0-.70174.70174v3.53915h-10.526v-3.53915a.70172.70172,0,0,0-.70174-.70174H475.4804a.70171.70171,0,0,0-.70173.70174v3.53915h-10.526v-3.53915a.70171.70171,0,0,0-.70173-.70174H446.70937a.70171.70171,0,0,0-.70173.70174v3.53915h-10.526v-3.53915a.70171.70171,0,0,0-.70174-.70174H417.93833a.70171.70171,0,0,0-.70173.70174v3.53915h-10.526v-3.53915a.70171.70171,0,0,0-.70173-.70174H389.1673a.70171.70171,0,0,0-.70173.70174v3.53915h-10.526v-3.53915a.70171.70171,0,0,0-.70173-.70174H360.39627a.70171.70171,0,0,0-.70174.70174v3.53915H327.41484a16.84159,16.84159,0,0,0-16.84158,16.84158v7.61537a16.84158,16.84158,0,0,0,16.84158,16.84154H887.3974A16.84158,16.84158,0,0,0,904.239,762.61571v-7.61537A16.84159,16.84159,0,0,0,887.3974,738.15876Z" transform="translate(-19.23898 -53.87484)" fill="#3f3d56" id="path2829" style="fill:#3e3e3e;fill-opacity:1"/><path d="M 384.047058 489.840149 H 460.148232 V 495.088379 H 384.047058 V 489.840149 Z" fill="#ccc" id="rect2837" style="fill: rgb(3, 2, 5); fill-opacity: 1; stroke-width: 0; opacity: 0.5; stroke: rgb(0, 0, 0);" transform="matrix(1.3082456588745115, 0, 0, 3.350963830947876, -133.18614697130562, -1151.6382396253741)"/><path d="M943.51144,362.9222a53.19709,53.19709,0,0,0-31.60589-16.67841l5.1983-4.6958-5.75067-.2904-7.11457,6.4306,6.43061,7.11462,5.75067.29041-4.30878-4.76428a49.359,49.359,0,0,1-7.87213,98.08691v4a53.36418,53.36418,0,0,0,39.27246-89.49365Z" transform="translate(-19.23898 -53.87484)" fill="#3f3d56" id="path2853" style="fill: rgb(255, 255, 255); fill-opacity: 1;"/><path d="M252.96652,362.9222a53.19709,53.19709,0,0,1,31.6059-16.67841l-5.19831-4.6958,5.75067-.2904,7.11457,6.4306-6.43061,7.11462-5.75067.29041,4.30878-4.76428a49.359,49.359,0,0,0,7.87213,98.08691v4a53.36418,53.36418,0,0,1-39.27246-89.49365Z" transform="translate(-19.23898 -53.87484)" fill="#3f3d56" id="path2855" style="fill: rgb(255, 255, 255); fill-opacity: 1;"/><path d="M985.771,381.79661l31.894-46.30584s27.77274-22.26912,19.81265-26.60525-28.80015,15.99258-28.80015,15.99258-60.12445,46.09338-50.20994,52.52635S985.771,381.79661,985.771,381.79661Z" transform="translate(-19.23898 -53.87484)" fill="#ffb8b8" id="path2873"/><path d="M990.40617,320.98636h41.30367a144.46152,144.46152,0,0,0,0-49.24667H990.40617A88.61132,88.61132,0,0,1,990.40617,320.98636Z" transform="translate(-19.23898 -53.87484)" fill="#eb7260" id="path2875" style="fill: rgb(249, 204, 0);"/><path d="M1097.79125,323.33578c-12.41227-20.9729-36.969-21.95033-36.969-21.95033s-23.92909-3.06-39.27945,28.882c-14.30776,29.77255-34.05429,58.51855-3.179,65.48809l5.577-17.358,3.45379,18.65031a120.80742,120.80742,0,0,0,13.21037.22578c33.06492-1.06753,64.55425.31233,63.54034-11.55275C1102.79746,369.94785,1109.73434,343.51589,1097.79125,323.33578Z" transform="translate(-19.23898 -53.87484)" fill="#2f2e41" id="path2877" style="fill: rgb(0, 0, 0);"/><path d="M1031.79575,452.61588l-15.90018,36.57041,55.65063,8.7451s26.23529-35.7754,28.62032-38.16043Z" transform="translate(-19.23898 -53.87484)" fill="#ffb8b8" id="path2879"/><path d="M 1068.207445 289.824829 A 29.415331 29.415331 0 0 1 1038.792114 319.24016 A 29.415331 29.415331 0 0 1 1009.376783 289.824829 A 29.415331 29.415331 0 0 1 1038.792114 260.409498 A 29.415331 29.415331 0 0 1 1068.207445 289.824829 Z" fill="#ffb8b8" id="circle2881"/><path d="M1050.876,365.1649s13.51515,30.21034,11.92513,33.39037,28.62032-16.69518,28.62032-16.69518-12.72014-21.46524-11.92513-24.64528Z" transform="translate(-19.23898 -53.87484)" fill="#ffb8b8" id="path2883"/><path d="M1095.39647,377.885s23.85026-13.51515,37.36542,23.85027c0,0,44.5205,52.47059,36.57041,62.0107s-38.16043-23.05526-38.16043-23.05526l-19.08022-19.87523s-27.0303-7.15508-24.64527-22.26025S1095.39647,377.885,1095.39647,377.885Z" transform="translate(-19.23898 -53.87484)" fill="#ffb8b8" id="path2885"/><path d="M1039.74584,396.17025l-55.65063-15.90018s-29.41533-11.92513-28.62032-4.77,54.06061,47.70053,71.55081,45.3155S1039.74584,396.17025,1039.74584,396.17025Z" transform="translate(-19.23898 -53.87484)" fill="#ffb8b8" id="path2887"/><path d="M1071.5462,390.60519s-18.28521-2.385-22.26025,1.59-11.52763.39751-11.52763.39751L1025.03817,415.648s-9.1426,13.11764-1.98752,25.83779-3.18,29.41533-3.18,29.41533,57.24064,0,69.16577,6.36007,26.29777-53.068,26.29777-53.068-14.77014-18.08528-10.79509-29.21541,1.59-19.87522,1.59-19.87522l-17.4902,1.59Z" transform="translate(-19.23898 -53.87484)" fill="#d0cde1" id="path2889" style="fill: rgb(255, 81, 0); fill-opacity: 1;"/><path d="M 983.9359741210938 688.1240234375 L 990.2969970703125 749.3400268554688 L 1014.9420166015625 736.6199951171875 L 1006.9920043945312 683.35400390625 L 983.9359741210938 688.1240234375 Z" fill="#ffb8b8" id="polygon2891"/><path d="M 1076.9520263671875 687.3289794921875 L 1097.64794921875 742.6699829101562 L 1117.52294921875 728.3599853515625 L 1092.85302734375 674.6090087890625 L 1076.9520263671875 687.3289794921875 Z" fill="#ffb8b8" id="polygon2893"/><path d="M1034.18078,769.82445a49.64912,49.64912,0,0,1-5.56506,12.72014c-3.97505,6.36007-13.51516,3.18-13.51516,3.18s-11.13012-8.7451-13.51515-4.77006-15.10517,23.85027-15.10517,23.85027-42.13547,34.98039-6.36007,40.54546,42.93048-20.67024,42.93048-20.67024,27.03031-9.5401,27.82532-19.08021S1034.18078,769.82445,1034.18078,769.82445Z" transform="translate(-19.23898 -53.87484)" fill="#2f2e41" id="path2895" style="fill: rgb(255, 81, 0); fill-opacity: 1;"/><path d="M1117.65672,781.41446s-12.72015-3.975-11.92514,2.385,5.56506,31.80036,5.56506,31.80036-8.74509,35.7754,15.90018,29.41533,25.44029-40.54546,25.44029-40.54546,12.72014-45.31551,3.18-46.11051-32.59536-3.18-32.59536-3.18S1137.53194,778.23443,1117.65672,781.41446Z" transform="translate(-19.23898 -53.87484)" fill="#2f2e41" id="path2897" style="fill: rgb(255, 81, 0); fill-opacity: 1;"/><path d="M 1073.06494140625 267.4389953613281 L 1048.803955078125 254.7310028076172 L 1015.301025390625 259.92999267578125 L 1008.3690185546875 290.5450134277344 L 1025.6240234375 289.8810119628906 L 1030.4439697265625 278.6340026855469 L 1030.4439697265625 289.6960144042969 L 1038.406005859375 289.3890075683594 L 1043.0269775390625 271.4830017089844 L 1045.916015625 290.5450134277344 L 1074.219970703125 289.9670104980469 L 1073.06494140625 267.4389953613281 Z" fill="#2f2e41" id="polygon2899" style="fill: rgb(0, 0, 0); fill-opacity: 1;"/><path d="M1080.2913,495.54636l-66.78075-15.10517s-33.39038,57.24065-38.16043,104.94118-26.2353,162.18183,7.95009,163.77184,54.0606,1.59,55.65062-1.59-16.69519-128.79145-16.69519-128.79145,38.95544,154.23173,60.42068,143.89662,45.31551-23.85027,44.5205-31.80036-52.47059-92.221-52.47059-92.221l7.15508-73.14082s8.7451-29.41533-6.36007-56.44563Z" transform="translate(-19.23898 -53.87484)" fill="#2f2e41" id="path2901" style="fill: rgb(0, 133, 4); fill-opacity: 1;"/><path d="M1032.162,475.67161h41.30366a144.46158,144.46158,0,0,0,0-49.24668H1032.162A88.61154,88.61154,0,0,1,1032.162,475.67161Z" transform="translate(-19.23898 -53.87484)" fill="#eb7260" id="path2903" style="fill: rgb(250, 214, 10);"/><path d="M1152.63711,439.89574l-69.96079-1.59s-31.00535-23.85027-31.80035-9.54011,32.59536,22.26025,32.59536,22.26025,71.78242,25.75844,82.79674,14.46924Z" transform="translate(-19.23898 -53.87484)" fill="#ffb8b8" id="path2905"/><path d="M 343.970154 413.385071 H 383.269859 V 422.766493 H 343.970154 V 413.385071 Z" fill="#ccc" id="rect2837-7-8" style="fill: rgb(0, 0, 0); fill-opacity: 0.66; stroke-width: 0.705249;" transform="matrix(2.7778310775756836, 0, 0, 2.7778310775756836, -421.34039299516735, -703.8055876438866)"/><path d="M 325.320374 83.696083 H 394.886421 V 88.944313 H 325.320374 V 83.696083 Z" style="opacity:0.5;fill:#657786;fill-opacity:1;stroke-width:0.701809" id="rect2837-6" fill="#ccc"/><path d="M 325.320374 98.944313 H 380.075649 V 104.192543 H 325.320374 V 98.944313 Z" style="opacity:0.5;fill:#657786;fill-opacity:1;stroke-width:0.622635" id="rect2839-8" fill="#ccc"/><path d="M 325.320374 114.192513 H 404.2565 V 119.440742 H 325.320374 V 114.192513 Z" style="opacity:0.5;fill:#657786;fill-opacity:1;stroke-width:0.747582" id="rect2841-91" fill="#ccc"/><path d="M 325.252777 17.805904 H 364.552483 V 27.187326 H 325.252777 V 17.805904 Z" style="fill: rgb(255, 255, 255); fill-opacity: 0.4; stroke-width: 0.705249;" id="rect2837-7-8-7" fill="#ccc" transform="matrix(1.652679204940796, 0, 0, 1.652679204940796, -135.45516129239456, 19.068363830066836)"/><path d="M 509.434296 18.454107 H 542.45155 V 27.038081 H 509.434296 V 18.454107 Z" style="fill: rgb(255, 255, 255); fill-opacity: 0.46; stroke-width: 0.618342;" id="rect2837-7-70-9" fill="#ccc" transform="matrix(0.9999999999999999, 0, 0, 1, -8.30247303269519, 6.837378985922598)"/><path d="M 325.320374 129.440765 H 397.606766 V 134.688995 H 325.320374 V 129.440765 Z" fill="#ccc" id="rect2841-6-1" style="opacity:0.5;fill:#657786;fill-opacity:1;stroke-width:0.7154"/><path d="M 325.320404 144.688995 H 414.835655 V 149.937225 H 325.320404 V 144.688995 Z" style="opacity:0.5;fill:#657786;fill-opacity:1;stroke-width:0.796103" id="rect2841-6-2-4" fill="#ccc"/><path d="M 325.320374 159.937225 H 407.279106 V 165.185455 H 325.320374 V 159.937225 Z" style="opacity:0.5;fill:#657786;fill-opacity:1;stroke-width:0.761761" id="rect2841-6-6-9" fill="#ccc"/><path d="M 325.320374 175.185455 H 389.143471 V 180.433685 H 325.320374 V 175.185455 Z" style="opacity:0.5;fill:#657786;fill-opacity:1;stroke-width:0.672217" id="rect2841-6-67-5" fill="#ccc"/><path d="M 325.320404 190.433655 H 377.959858 V 195.681885 H 325.320404 V 190.433655 Z" style="opacity:0.5;fill:#657786;fill-opacity:1;stroke-width:0.610487" id="rect2841-6-8-9" fill="#ccc"/><path d="M 325.320404 205.681885 H 396.09549 V 210.930115 H 325.320404 V 205.681885 Z" fill="#ccc" id="rect2841-6-8-8-0" style="opacity:0.5;fill:#657786;fill-opacity:1;stroke-width:0.707882"/><path d="M 448.236786 83.696083 H 517.802834 V 88.944313 H 448.236786 V 83.696083 Z" fill="#ccc" id="rect2837-75-9" style="opacity:0.5;fill:#657786;fill-opacity:1;stroke-width:0.701809" transform="matrix(0.9999999999999999, 0, 0, 0.9999999999999999, -45.450086574913115, -0.05237702205813477)"/><path d="M 448.236786 98.944313 H 502.992062 V 104.192543 H 448.236786 V 98.944313 Z" fill="#ccc" id="rect2839-6-3" style="opacity:0.5;fill:#657786;fill-opacity:1;stroke-width:0.622635" transform="matrix(1, 0, 0, 1, -60.44577441032109, 0.17349125758705952)"/><path d="M 448.236786 114.192513 H 527.172913 V 119.440742 H 448.236786 V 114.192513 Z" fill="#ccc" id="rect2841-5-4" style="opacity:0.5;fill:#657786;fill-opacity:1;stroke-width:0.747582" transform="matrix(1, 0, 0, 1, -39.832061225766665, -0.2736062871930045)"/><path d="M 448.236786 129.440765 H 520.523178 V 134.688995 H 448.236786 V 129.440765 Z" style="opacity:0.5;fill:#657786;fill-opacity:1;stroke-width:0.7154" id="rect2841-6-3-0" fill="#ccc" transform="matrix(1, 0, 0, 1, -44.95990523120281, -0.21207652617717798)"/><path d="M 448.236786 144.688995 H 537.752037 V 149.937225 H 448.236786 V 144.688995 Z" fill="#ccc" id="rect2841-6-2-0-7" style="opacity:0.5;fill:#657786;fill-opacity:1;stroke-width:0.796103" transform="matrix(1, 0, 0, 1, -27.14560471885096, -7.105427357601002e-15)"/><path d="M 448.236786 159.937225 H 530.195518 V 165.185455 H 448.236786 V 159.937225 Z" fill="#ccc" id="rect2841-6-6-4-5" style="opacity:0.5;fill:#657786;fill-opacity:1;stroke-width:0.761761" transform="matrix(1, 0, 0, 1, -34.992381082893814, 0)"/><path d="M 325.320404 220.930115 H 414.835655 V 226.178345 H 325.320404 V 220.930115 Z" fill="#ccc" id="rect2841-6-2-4-3" style="opacity:0.5;fill:#657786;fill-opacity:1;stroke-width:0.796103" transform="matrix(1, 0, 0, 1, 75.92013500148329, -15.181354083174654)"/><path d="M 325.320374 236.178345 H 407.279106 V 241.426575 H 325.320374 V 236.178345 Z" fill="#ccc" id="rect2841-6-6-9-3" style="opacity:0.5;fill:#657786;fill-opacity:1;stroke-width:0.761761" transform="matrix(1, 0, 0, 1, 0.27035069791386945, -15.990402736088228)"/><path d="M 448.236786 175.185455 H 523.86451 V 180.433685 H 448.236786 V 175.185455 Z" fill="#ccc" id="rect2841-6-2-4-0" style="opacity:0.5;fill:#657786;fill-opacity:1;stroke-width:0.731748" transform="matrix(1, 0, 0, 1, -53.230831146240234, 5.223799348641478e-8)"/><path d="M 448.236786 190.433685 H 534.494041 V 195.681915 H 448.236786 V 190.433685 Z" fill="#ccc" id="rect2841-6-6-9-4" style="opacity:0.5;fill:#657786;fill-opacity:1;stroke-width:0.781482" transform="matrix(1, 0, 0, 1, -62.98628594920888, -1.4210854715202004e-14)"/><path d="M 325.320374 251.426575 H 398.732475 V 256.674805 H 325.320374 V 251.426575 Z" fill="#ccc" id="rect2841-6-67-5-7" style="opacity:0.5;fill:#657786;fill-opacity:1;stroke-width:0.720949" transform="matrix(1, 0, 0, 1, 88.51415815925193, -31.053527610466517)"/><path d="M 835.255432 66.280136 H 851.117353 V 72.354118 H 835.255432 V 66.280136 Z" fill="#ccc" id="rect2837-7-70-9-3" style="fill: rgb(2, 0, 4); fill-opacity: 0.7; stroke-width: 0.360519;" transform="matrix(1.8144145579210407, 0, 0, 1.8144145579210407, -691.0858183255268, -51.235156622673834)"/><path d="M 747.719788 121.028618 H 817.285835 V 125.74128 H 747.719788 V 121.028618 Z" fill="#ccc" id="rect2837-6-0" style="opacity: 0.5; fill: rgb(0, 0, 0); fill-opacity: 0.94; stroke-width: 0.665037;"/><path d="M 747.719788 134.720795 H 802.475063 V 139.433456 H 747.719788 V 134.720795 Z" fill="#ccc" id="rect2839-8-4" style="opacity: 0.5; fill: rgb(0, 0, 0); fill-opacity: 1; stroke-width: 0.590011;"/><path d="M 747.719788 148.412964 H 826.655914 V 153.125626 H 747.719788 V 148.412964 Z" fill="#ccc" id="rect2841-91-0" style="opacity: 0.5; fill: rgb(0, 0, 0); fill-opacity: 1; stroke-width: 0.708411;"/><path d="M 747.719788 95.962654 H 842.071213 V 103.069578 H 747.719788 V 95.962654 Z" style="fill: rgb(0, 0, 0); fill-opacity: 0.67; stroke-width: 0.9511;" id="rect2837-9-3-5" fill="#ccc" transform="matrix(1, 0, 0, 2.604816436767578, 4.6482801206551585, -163.09549677393235)"/><path d="M 747.719788 162.105164 H 820.00618 V 166.817825 H 747.719788 V 162.105164 Z" style="opacity: 0.5; fill: rgb(0, 0, 0); fill-opacity: 1; stroke-width: 0.677916;" id="rect2841-6-1-7" fill="#ccc"/><path d="M 747.719849 175.797348 H 837.2351 V 180.51001 H 747.719849 V 175.797348 Z" fill="#ccc" id="rect2841-6-2-4-00" style="opacity: 0.5; fill: rgb(0, 0, 0); fill-opacity: 1; stroke-width: 0.75439;"/><path d="M 747.719788 189.489532 H 829.67852 V 194.202194 H 747.719788 V 189.489532 Z" fill="#ccc" id="rect2841-6-6-9-5" style="opacity: 0.5; fill: rgb(2, 0, 8); fill-opacity: 1; stroke-width: 0.721847;"/><path d="M 747.719788 203.181732 H 811.542885 V 207.894394 H 747.719788 V 203.181732 Z" fill="#ccc" id="rect2841-6-67-5-6" style="opacity: 0.5; fill: rgb(0, 0, 0); fill-opacity: 1; stroke-width: 0.636995;"/><path d="M 747.719849 216.873901 H 800.359303 V 221.586563 H 747.719849 V 216.873901 Z" fill="#ccc" id="rect2841-6-8-9-7" style="opacity: 0.5; fill: rgb(2, 0, 8); fill-opacity: 1; stroke-width: 0.5785;"/><path d="M 747.719849 230.566086 H 818.494934 V 235.278748 H 747.719849 V 230.566086 Z" style="opacity: 0.5; fill: rgb(0, 0, 0); fill-opacity: 1; stroke-width: 0.670792;" id="rect2841-6-8-8-0-8" fill="#ccc"/><path d="M 747.719849 244.25827 H 837.2351 V 248.970932 H 747.719849 V 244.25827 Z" style="opacity: 0.5; fill: rgb(0, 0, 0); fill-opacity: 1; stroke-width: 0.75439;" id="rect2841-6-2-4-3-0" fill="#ccc"/><path d="M 747.719788 257.95047 H 829.67852 V 262.663132 H 747.719788 V 257.95047 Z" style="opacity: 0.5; fill: rgb(0, 0, 0); fill-opacity: 1; stroke-width: 0.721847;" id="rect2841-6-6-9-3-6" fill="#ccc"/><path d="M 747.719788 271.642639 H 821.131889 V 276.355301 H 747.719788 V 271.642639 Z" style="opacity: 0.5; fill: rgb(0, 0, 0); fill-opacity: 1; stroke-width: 0.683174;" id="rect2841-6-67-5-7-5" fill="#ccc"/><path d="M 52.27893829345703 -54.85940170288086" style="fill: rgb(167, 236, 231); fill-opacity: 1; stroke: rgb(0, 0, 0); stroke-opacity: 1; stroke-width: 0; paint-order: fill;"/><path d="M 550.8394165039062 465.4194030761719" style="fill: rgb(101, 119, 134); fill-opacity: 1; stroke: rgb(0, 0, 0); stroke-opacity: 1; stroke-width: 0; paint-order: fill;"/><path d="M 628.7257690429688 168.3970947265625" style="fill: rgb(255, 255, 255); fill-opacity: 0.77; stroke: rgb(0, 0, 0); stroke-opacity: 1; stroke-width: 0; paint-order: fill;"/><path d="M 653.627197265625 100.80712890625" style="fill: rgb(255, 255, 255); fill-opacity: 0.77; stroke: rgb(0, 0, 0); stroke-opacity: 1; stroke-width: 0; paint-order: fill;"/><path d="M 424.151123046875 30.65472984313965" style="fill: rgb(7, 0, 44); fill-opacity: 1; stroke: rgb(0, 0, 0); stroke-opacity: 1; stroke-width: 0; paint-order: fill;"/></g><path d="M 384.047058 489.840149 H 460.148232 V 495.088379 H 384.047058 V 489.840149 Z" fill="#ccc" id="path-2" style="fill: rgb(0, 0, 0); fill-opacity: 1; stroke-width: 0; opacity: 0.5; stroke: rgb(0, 0, 0); stroke-opacity: 1;" transform="matrix(0.4633059501647949, 0, 0, 3.6202745437622075, 414.0066833496094, -1152.5483187124175)"/><path d="M 384.047058 489.840149 H 460.148232 V 495.088379 H 384.047058 V 489.840149 Z" fill="#ccc" id="path-3" style="fill: rgb(0, 0, 0); fill-opacity: 1; stroke-width: 0; opacity: 0.5; stroke: rgb(0, 0, 0);" transform="matrix(2.102463960647583, 0, 0, 3.620265457486595, -167.8077850341797, -1152.9867216136038)"/><path d="M 384.047058 489.840149 H 460.148232 V 495.088379 H 384.047058 V 489.840149 Z" fill="#ccc" id="path-4" style="fill: rgb(0, 0, 0); fill-opacity: 1; stroke-width: 0; opacity: 0.5; stroke: rgb(0, 0, 0);" transform="matrix(0.9198281764984131, 0, 0, 3.620262407024309, 456.1164245605469, -1153.089563083334)"/><path d="M 384.047058 489.840149 H 460.148232 V 495.088379 H 384.047058 V 489.840149 Z" fill="#ccc" id="path-5" style="fill: rgb(0, 0, 0); fill-opacity: 1; stroke-width: 0; opacity: 0.5; stroke: rgb(0, 0, 0);" transform="matrix(0.5913183689117432, 0, 0, 3.6450474262237544, 665.0219803464884, -1165.5517578124998)"/><path d="M 384.047058 489.840149 H 460.148232 V 495.088379 H 384.047058 V 489.840149 Z" fill="#ccc" id="path-6" style="fill: rgb(3, 2, 5); fill-opacity: 1; stroke-width: 0; opacity: 0.5; stroke: rgb(0, 0, 0);" transform="matrix(1.4133858680725098, 0, 0, 3.6202716827392587, -71.22885801582754, -1122.0822154205275)"/><path d="M 384.047058 489.840149 H 460.148232 V 495.088379 H 384.047058 V 489.840149 Z" fill="#ccc" id="path-7" style="fill: rgb(0, 0, 0); fill-opacity: 1; stroke-width: 0; opacity: 0.5; stroke: rgb(0, 0, 0);" transform="matrix(0.9198284745216371, 0, 0, 3.620262384414673, 238.49997263280693, -1122.6926553704461)"/><path d="M 384.047058 489.840149 H 460.148232 V 495.088379 H 384.047058 V 489.840149 Z" fill="#ccc" id="path-8" style="fill: rgb(0, 0, 0); fill-opacity: 1; stroke-width: 0; opacity: 0.5; stroke: rgb(0, 0, 0);" transform="matrix(2.102463960647583, 0, 0, 3.620265483856201, -132.72953589231048, -1123.0325679450636)"/><path d="M 384.047058 489.840149 H 460.148232 V 495.088379 H 384.047058 V 489.840149 Z" fill="#ccc" id="path-9" style="fill: rgb(0, 0, 0); fill-opacity: 1; stroke-width: 0; opacity: 0.5; stroke: rgb(0, 0, 0); stroke-opacity: 1;" transform="matrix(0.4633059501647949, 0, 0, 3.620274543762207, 668.1542761594328, -1123.1845020420483)"/><path d="M 384.047058 489.840149 H 460.148232 V 495.088379 H 384.047058 V 489.840149 Z" fill="#ccc" id="path-10" style="fill: rgb(0, 0, 0); fill-opacity: 1; stroke-width: 0; opacity: 0.5; stroke: rgb(0, 0, 0);" transform="matrix(2.1024639606475826, 0, 0, 3.6202654838562007, -335.432072860588, -1091.637827594046)"/><path d="M 384.047058 489.840149 H 460.148232 V 495.088379 H 384.047058 V 489.840149 Z" fill="#ccc" id="path-11" style="fill: rgb(0, 0, 0); fill-opacity: 1; stroke-width: 0; opacity: 0.5; stroke: rgb(0, 0, 0);" transform="matrix(0.5913183689117432, 0, 0, 3.6450474262237553, 419.06193038068557, -1103.8021132693818)"/><g transform="matrix(0.05582366138696671, 0, 0, 0.055823661386966705, 533.447879954561, 115.63578766253198)"><path d="M305.6,178.053c-3.2-0.8-6.4,0-9.2,2c-10.4,8.8-22.4,16-35.6,20.8c-12.4,4.8-26,7.2-40.4,7.2c-32.4,0-62-13.2-83.2-34.4&#10;&#9;&#9;&#9;c-21.2-21.2-34.4-50.8-34.4-83.2c0-13.6,2.4-26.8,6.4-38.8c4.4-12.8,10.8-24.4,19.2-34.4c3.6-4.4,2.8-10.8-1.6-14.4&#10;&#9;&#9;&#9;c-2.8-2-6-2.8-9.2-2c-34,9.2-63.6,29.6-84.8,56.8c-20.4,26.8-32.8,60-32.8,96.4c0,43.6,17.6,83.2,46.4,112s68.4,46.4,112,46.4&#10;&#9;&#9;&#9;c36.8,0,70.8-12.8,98-34c27.6-21.6,47.6-52.4,56-87.6C314.4,184.853,311.2,179.253,305.6,178.053z M244.4,261.653&#10;&#9;&#9;&#9;c-23.2,18.4-52.8,29.6-85.2,29.6c-38,0-72.4-15.6-97.2-40.4c-24.8-24.8-40.4-59.2-40.4-97.2c0-31.6,10.4-60.4,28.4-83.6&#10;&#9;&#9;&#9;c12.4-16,28-29.2,46-38.4c-2,4.4-4,8.8-5.6,13.6c-5.2,14.4-7.6,29.6-7.6,45.6c0,38,15.6,72.8,40.4,97.6s59.6,40.4,97.6,40.4&#10;&#9;&#9;&#9;c16.8,0,32.8-2.8,47.6-8.4c5.2-2,10.4-4,15.2-6.4C274,232.453,260.8,248.853,244.4,261.653z" style="fill: rgb(170, 170, 170);"/></g><g transform="matrix(0.0503031425178051, 0, 0, 0.0503031425178051, 690.6058126898536, 538.6612548828125)"><path id="Layer" fill-rule="evenodd" class="shp0" d="M335 240.5C334.94 292.67 292.67 334.94 240.5 335C188.31 335 146 292.69 146 240.5C146 188.31 188.31 146 240.5 146C292.69 146 335 188.31 335 240.5ZM323.19 240.5C323.14 194.85 286.15 157.86 240.5 157.81C194.83 157.81 157.81 194.83 157.81 240.5C157.81 286.17 194.83 323.19 240.5 323.19C286.17 323.19 323.19 286.17 323.19 240.5Z" style="fill: rgb(34, 34, 34);"/><path id="Layer" class="shp0" d="M138.17 126.86L81.6 70.3C81.45 70.13 81.29 69.98 81.13 69.83C77.88 66.84 72.82 67.05 69.83 70.3C66.83 73.55 67.05 78.61 70.3 81.6L126.86 138.18C128.36 139.68 130.4 140.52 132.52 140.52C134.63 140.52 136.67 139.68 138.17 138.18C141.29 135.05 141.29 129.99 138.17 126.86Z" style="fill: rgb(34, 34, 34);"/><path id="Layer" class="shp0" d="M138.18 342.02C135.11 338.84 130.04 338.75 126.86 341.82L70.3 398.39C68.8 399.89 67.95 401.93 67.95 404.05C67.95 408.46 71.53 412.05 75.95 412.05C78.07 412.04 80.1 411.2 81.6 409.7L138.18 353.14C141.17 350.04 141.17 345.12 138.18 342.02Z" style="fill: rgb(34, 34, 34);"/><path id="Layer" class="shp0" d="M409.7 398.4L353.14 341.82C350.04 338.83 345.12 338.83 342.02 341.82C338.84 344.89 338.75 349.96 341.82 353.14L398.39 409.7C399.89 411.2 401.93 412.05 404.05 412.05L404.05 412.06C406.17 412.06 408.2 411.21 409.7 409.71C412.83 406.59 412.83 401.52 409.7 398.4Z" style="fill: rgb(34, 34, 34);"/><path id="Layer copy" class="shp0" d="M468.74 232.44L388.74 232.03C384.43 232.08 380.93 235.54 380.84 239.85C380.74 244.27 384.24 247.93 388.66 248.03L468.65 248.43C470.77 248.44 472.81 247.61 474.32 246.12L474.33 246.12C475.83 244.63 476.69 242.6 476.7 240.48C476.72 236.06 473.16 232.46 468.74 232.44Z" style="fill: rgb(34, 34, 34);"/><path id="Layer copy 2" class="shp0" d="M89.74 232.44L9.74 232.03C5.43 232.08 1.93 235.54 1.84 239.85C1.74 244.27 5.24 247.93 9.66 248.03L89.65 248.43C91.77 248.44 93.81 247.61 95.32 246.12L95.33 246.12C96.83 244.63 97.69 242.6 97.7 240.48C97.72 236.06 94.16 232.46 89.74 232.44Z" style="fill: rgb(34, 34, 34);"/><path id="Layer copy 3" class="shp0" d="M248.56 91.2L248.96 11.2C248.91 6.89 245.45 3.39 241.14 3.3C236.73 3.2 233.07 6.7 232.97 11.12L232.57 91.12C232.55 93.24 233.39 95.28 234.88 96.78L234.87 96.79C236.37 98.3 238.39 99.15 240.52 99.16C244.93 99.18 248.53 95.62 248.56 91.2Z" style="fill: rgb(34, 34, 34);"/><path id="Layer copy 4" class="shp0" d="M247.56 470.2L247.96 390.2C247.91 385.89 244.45 382.39 240.14 382.3C235.73 382.2 232.07 385.7 231.97 390.12L231.57 470.12C231.55 472.24 232.39 474.28 233.88 475.78L233.87 475.79C235.37 477.3 237.39 478.15 239.52 478.16C243.93 478.18 247.53 474.62 247.56 470.2Z" style="fill: rgb(34, 34, 34);"/><path id="Layer" class="shp0" d="M409.7 69.83C406.45 66.84 401.39 67.05 398.4 70.3L341.82 126.86C340.32 128.36 339.48 130.4 339.48 132.52C339.48 136.94 343.06 140.52 347.48 140.52C349.6 140.52 351.64 139.67 353.14 138.17L409.7 81.6C409.87 81.45 410.02 81.29 410.17 81.13C413.17 77.88 412.95 72.82 409.7 69.83Z" style="fill: rgb(34, 34, 34);"/></g><path d="M 384.047058 489.840149 H 460.148232 V 495.088379 H 384.047058 V 489.840149 Z" fill="#ccc" id="path-12" style="fill: rgb(3, 2, 5); fill-opacity: 1; stroke-width: 0; opacity: 0.5; stroke: rgb(0, 0, 0);" transform="matrix(1.4133858680725098, 0, 0, 3.6202716827392574, 162.75433603747123, -1091.4506912178822)"/><path d="M 384.047058 489.840149 H 460.148232 V 495.088379 H 384.047058 V 489.840149 Z" fill="#ccc" id="path-13" style="fill: rgb(0, 0, 0); fill-opacity: 1; stroke-width: 0; opacity: 0.5; stroke: rgb(0, 0, 0);" transform="matrix(0.919828474521637, 0, 0, 3.620262384414673, 469.39111328125, -1091.2183817384914)"/><path d="M 384.047058 489.840149 H 460.148232 V 495.088379 H 384.047058 V 489.840149 Z" fill="#ccc" id="path-14" style="fill: rgb(0, 0, 0); fill-opacity: 1; stroke-width: 0; opacity: 0.5; stroke: rgb(0, 0, 0); stroke-opacity: 1;" transform="matrix(0.4633059501647949, 0, 0, 3.620274543762207, 293.8182412627349, -1061.0110109086318)"/><path d="M 384.047058 489.840149 H 460.148232 V 495.088379 H 384.047058 V 489.840149 Z" fill="#ccc" id="path-15" style="fill: rgb(0, 0, 0); fill-opacity: 1; stroke-width: 0; opacity: 0.5; stroke: rgb(0, 0, 0); stroke-opacity: 1;" transform="matrix(1.051232443915473, 0, 0, 3.620274543762207, 113.90423519833956, -1061.607666015625)"/><path d="M 384.047058 489.840149 H 460.148232 V 495.088379 H 384.047058 V 489.840149 Z" fill="#ccc" id="path-16" style="fill: rgb(0, 0, 0); fill-opacity: 1; stroke-width: 0; opacity: 0.5; stroke: rgb(0, 0, 0); stroke-opacity: 1;" transform="matrix(0.7227217629052064, 0, 0, 3.620274543762207, 331.2968664663533, -1061.607666015625)"/><path d="M 384.047058 489.840149 H 460.148232 V 495.088379 H 384.047058 V 489.840149 Z" fill="#ccc" id="path-17" style="fill: rgb(0, 0, 0); fill-opacity: 1; stroke-width: 0; opacity: 0.5; stroke: rgb(0, 0, 0); stroke-opacity: 1;" transform="matrix(1.4585850343108178, 0, 0, 3.620274543762207, 114.80997409289657, -1061.6956787109375)"/><path d="M 384.047058 489.840149 H 460.148232 V 495.088379 H 384.047058 V 489.840149 Z" fill="#ccc" id="path-18" style="fill: rgb(0, 0, 0); fill-opacity: 1; stroke-width: 0; opacity: 0.5; stroke: rgb(0, 0, 0); stroke-opacity: 1;" transform="matrix(0.463305950164795, 0, 0, 3.620274543762207, 617.7492065429688, -1061.9746338337889)"/><path d="M 384.047058 489.840149 H 460.148232 V 495.088379 H 384.047058 V 489.840149 Z" fill="#ccc" id="path-19" style="fill: rgb(0, 0, 0); fill-opacity: 1; stroke-width: 0; opacity: 0.5; stroke: rgb(0, 0, 0); stroke-opacity: 1;" transform="matrix(1.1826364611481661, 0, 0, 3.620274543762207, 387.2433555216452, -1061.8223876953125)"/><path d="M 384.047058 489.840149 H 460.148232 V 495.088379 H 384.047058 V 489.840149 Z" fill="#ccc" id="path-20" style="fill: rgb(3, 2, 5); fill-opacity: 1; stroke-width: 0; opacity: 0.5; stroke: rgb(0, 0, 0);" transform="matrix(1.4133858680725095, 0, 0, 3.620271682739258, -72.36845283107044, -1031.6748231154488)"/><path d="M 384.047058 489.840149 H 460.148232 V 495.088379 H 384.047058 V 489.840149 Z" fill="#ccc" id="path-21" style="fill: rgb(0, 0, 0); fill-opacity: 1; stroke-width: 0; opacity: 0.5; stroke: rgb(0, 0, 0);" transform="matrix(2.102463960647583, 0, 0, 3.620265483856201, -218.68030287895806, -1031.6716844815533)"/><path d="M 384.047058 489.840149 H 460.148232 V 495.088379 H 384.047058 V 489.840149 Z" fill="#ccc" id="path-22" style="fill: rgb(0, 0, 0); fill-opacity: 1; stroke-width: 0; opacity: 0.5; stroke: rgb(0, 0, 0); stroke-opacity: 1;" transform="matrix(0.4633059501647949, 0, 0, 3.6202745437622075, 584.9547175598195, -1031.676175172525)"/><path d="M 343.970154 413.385071 H 383.269859 V 422.766493 H 343.970154 V 413.385071 Z" fill="#ccc" id="path-23" style="fill: rgb(0, 0, 0); fill-opacity: 0.66; stroke-width: 0.705249;" transform="matrix(1.6565430164337156, 0, 0, 2.4516570568084712, 318.02142333984375, -474.9398425949653)"/><path d="M 448.236786 98.944313 H 502.992062 V 104.192543 H 448.236786 V 98.944313 Z" fill="#ccc" id="path-24" style="opacity:0.5;fill:#657786;fill-opacity:1;stroke-width:0.622635" transform="matrix(1.0803673267364502, 0, 0, 1.0803673267364502, 108.57132275638384, 74.94843292236328)"/><path d="M 325.320404 144.688995 H 414.835655 V 149.937225 H 325.320404 V 144.688995 Z" style="opacity:0.5;fill:#657786;fill-opacity:1;stroke-width:0.796103" id="path-25" fill="#ccc" transform="matrix(1.0803673267364502, 0, 0, 1.0803673267364502, 204.87395070415317, 42.691914240305294)"/><path d="M 448.236786 129.440765 H 520.523178 V 134.688995 H 448.236786 V 129.440765 Z" style="opacity:0.5;fill:#657786;fill-opacity:1;stroke-width:0.7154" id="path-26" fill="#ccc" transform="matrix(0.44268343046114045, 0, 0, 1.0803673267364502, 405.9021932831495, 74.98604583740234)"/><path d="M 448.236786 129.440765 H 520.523178 V 134.688995 H 448.236786 V 129.440765 Z" style="opacity:0.5;fill:#657786;fill-opacity:1;stroke-width:0.7154" id="path-27" fill="#ccc" transform="matrix(0.954536092778047, 0, 0, 1.0803673267364502, 157.07979441479958, 141.3287353515625)"/><path d="M 448.236786 129.440765 H 520.523178 V 134.688995 H 448.236786 V 129.440765 Z" style="opacity:0.5;fill:#657786;fill-opacity:1;stroke-width:0.7154" id="path-28" fill="#ccc" transform="matrix(0.4426834285259247, 0, 0, 1.0803673267364502, 410.1362708726581, 174.05965627017392)"/></g></g></g><g transform="matrix(2.72683709570678, 0, 0, 2.72683709570678, -732.5360110101086, -627.6165963886804)"><path class="st1" d="M601.5,275.6c0-0.4,0-0.7,0-1.1c0-12.2-10.2-22.2-22.7-22.2c-1.8,0-3.5,0.2-5.1,0.6&#10;&#9;&#9;c-2.4-9.7-11.4-16.9-22-16.9c-10.8,0-19.8,7.3-22.1,17.2c-2-0.6-4.1-0.9-6.3-0.9c-12.5,0-22.7,9.9-22.7,22.2c0,0.2,0,0.5,0,0.7&#10;&#9;&#9;c-9.4,2.8-16.2,11.4-16.2,21.5c0,12.4,10.3,22.5,23,22.5h86.2c12.7,0,23-10.1,23-22.5C616.5,287,610.3,278.8,601.5,275.6z" style="fill: rgb(255, 255, 255); opacity: 1;" transform="matrix(1, 0, 0, 1, 0, 0)"/></g><path d="M 252.96652 362.9222 C 261.26339346245027 353.88450346358957 272.4290877147921 347.9923748412882 284.57242 346.24379 L 279.37411000000003 341.54798999999997 L 285.12478000000004 341.25759 L 292.23935000000006 347.68819 L 285.80874000000006 354.80281 L 280.05807000000004 355.09322000000003 L 284.36685000000006 350.32894000000005 C 277.6620788574219 351.4115295410156 271.6161804199219 353.7188720703125 266.3448791503906 356.9468078613281 C 242.1252899169922 371.77789306640625 234.258166296098 406.0428081922144 253.96888732910156 430.2344970703125 C 263.34345832330246 441.74024862442843 244.51659702910186 427.0207928363517 257.6416899609376 432.95210488281253 L 255.56002492187508 436.9071524902344 C 236.30359308927052 418.9387022840977 234.19258164705073 396.975774168689 246.02514826623622 372.3695800076536 C 247.72383124814255 368.8370981201805 250.31279381027707 365.806846634342 252.9665200000001 362.92220000000003 L 252.96652 362.9222 Z" transform="matrix(1.0276945386079568, 0.2585421476598331, -0.2585421476598331, 1.0276945386079568, 360.3777062109165, -251.38590871248405)" fill="#3f3d56" id="path-33" style="fill: rgb(255, 255, 255); fill-opacity: 1;"/><path d="M 734.6539916992188 281.4217834472656 L 734.6539916992188 281.4217834472656" style="fill: rgb(255, 255, 255); fill-opacity: 1; stroke: rgb(0, 0, 0); stroke-opacity: 1; stroke-width: 0; paint-order: fill;"/><path d="M 764.385009765625 260.0416564941406 L 764.385009765625 260.0416564941406" style="fill: rgb(255, 255, 255); fill-opacity: 1; stroke: rgb(0, 0, 0); stroke-opacity: 1; stroke-width: 0; paint-order: fill;"/><path d="M 680.264404296875 370.0033264160156 L 680.264404296875 370.0033264160156" style="fill: rgb(255, 255, 255); fill-opacity: 1; stroke: rgb(0, 0, 0); stroke-opacity: 1; stroke-width: 0; paint-order: fill;"/><path d="M 672.1253051757812 274.60601806640625 L 672.1253051757812 274.60601806640625" style="fill: rgb(255, 255, 255); fill-opacity: 1; stroke: rgb(0, 0, 0); stroke-opacity: 1; stroke-width: 0; paint-order: fill;"/><path d="M 519.4158325195312 249.52098083496094 L 519.4158325195312 249.52098083496094" style="fill: rgb(255, 255, 255); fill-opacity: 1; stroke: rgb(0, 0, 0); stroke-opacity: 1; stroke-width: 0; paint-order: fill;"/><path d="M 550.08251953125 215.02098083496094 L 550.08251953125 215.02098083496094" style="fill: rgb(255, 255, 255); fill-opacity: 1; stroke: rgb(0, 0, 0); stroke-opacity: 1; stroke-width: 0; paint-order: fill;"/><path style="fill: rgb(255, 255, 255); fill-opacity: 1; stroke: rgb(0, 0, 0); stroke-opacity: 1; stroke-width: 0; paint-order: fill;" transform="matrix(0.6316021680831909, 0, 0, 0.6316021680831909, 194.68937433927158, 209.25603050859206)"/><path d="M 252.96652 362.9222 C 261.26339346245027 353.88450346358957 272.4290877147921 347.9923748412882 284.57242 346.24379 L 279.37411000000003 341.54798999999997 L 285.12478000000004 341.25759 L 292.23935000000006 347.68819 L 285.80874000000006 354.80281 L 280.05807000000004 355.09322000000003 L 284.36685000000006 350.32894000000005 C 277.6620788574219 351.4115295410156 271.6161804199219 353.7188720703125 266.3448791503906 356.9468078613281 C 242.1252899169922 371.77789306640625 234.258166296098 406.0428081922144 253.96888732910156 430.2344970703125 C 263.34345832330246 441.74024862442843 244.51659702910186 427.0207928363517 257.6416899609376 432.95210488281253 L 255.56002492187508 436.9071524902344 C 236.30359308927052 418.9387022840977 234.19258164705073 396.975774168689 246.02514826623622 372.3695800076536 C 247.72383124814255 368.8370981201805 250.31279381027707 365.806846634342 252.9665200000001 362.92220000000003 L 252.96652 362.9222 Z" transform="matrix(0.7620220184326171, -0.736428678035736, 0.736428678035736, 0.7620220184326171, 232.03160240387894, 198.16028537938433)" fill="#3f3d56" id="path-35" style="fill: rgb(255, 255, 255); fill-opacity: 1;"/><path d="M 519.4158325195312 249.52098083496094 L 519.4158325195312 249.52098083496094" style="fill: rgb(255, 255, 255); fill-opacity: 1; stroke: rgb(0, 0, 0); stroke-opacity: 1; stroke-width: 0; paint-order: fill;" transform="matrix(1, 0, 0, 1, 142.1002820846329, 183.9746889558577)"/><path d="M 550.08251953125 215.02098083496094 L 550.08251953125 215.02098083496094" style="fill: rgb(255, 255, 255); fill-opacity: 1; stroke: rgb(0, 0, 0); stroke-opacity: 1; stroke-width: 0; paint-order: fill;" transform="matrix(1, 0, 0, 1, 142.1002820846329, 183.9746889558577)"/></svg>